<svg id="Layer_1" viewBox="0 0 512 512" xmlns="http://www.w3.org/2000/svg" data-name="Layer 1"><path d="m461.293 13h-410.587c-11.706 0-21.237 8.688-21.237 19.366v132.2c0 10.679 9.527 19.368 21.237 19.368h81.374v189.2a8 8 0 0 0 8 8h102.35v8.071a50.1 50.1 0 0 0 42.008 49.637v5.858h-11.388a8 8 0 0 0 -8 8v38.3a8 8 0 0 0 8 8h161.825a8 8 0 0 0 8-8v-38.3a8 8 0 0 0 -8-8h-11.388v-142.567a48.673 48.673 0 0 0 -14.73-35.563l-28.837-28.836v-53.8h81.373c11.711 0 21.238-8.689 21.238-19.368v-132.2c0-10.678-9.531-19.366-21.238-19.366z" fill="#60607c"/><path d="m132.08 69.1h-15.38a29.179 29.179 0 0 0 -29.151 29.142v.482a29.178 29.178 0 0 0 29.151 29.145h15.38z" fill="#484868"/><path d="m395.305 69.1h-15.385v58.773h15.385a29.178 29.178 0 0 0 29.146-29.145v-.482a29.179 29.179 0 0 0 -29.146-29.146z" fill="#484868"/><path d="m284.438 444.705h139.049v-142.572a48.673 48.673 0 0 0 -14.73-35.563l-28.837-28.836v111.679a48.611 48.611 0 0 0 -14.83-35.66l-61.215-60.9a20.866 20.866 0 0 0 -29.829.5l-2.529 2.7a46.312 46.312 0 0 0 .617 64.449l25.779 26.232a10.678 10.678 0 0 1 3.221 7.9v26.51h-58.7v8.071a50.1 50.1 0 0 0 42.008 49.637z" fill="#ffddab"/><path d="m132.08 69.1v304.039a8 8 0 0 0 8 8h161.054v-26.51a10.678 10.678 0 0 0 -3.221-7.9l-25.779-26.229a46.312 46.312 0 0 1 -.617-64.449l2.529-2.7a20.866 20.866 0 0 1 29.829-.5l61.215 60.9a48.611 48.611 0 0 1 14.83 35.66v-280.311z" fill="#679b67"/><path d="m297.913 346.727-25.779-26.227a46.312 46.312 0 0 1 -.617-64.449l2.529-2.7a20.866 20.866 0 0 1 29.829-.5l47.784 47.54v-231.291h-191.318v252.591a8 8 0 0 0 8 8 15.191 15.191 0 0 1 15.159 15.187 8 8 0 0 0 8 8h109.505a10.583 10.583 0 0 0 -3.092-6.151z" fill="#7ebc7e"/><path d="m316.96 69.1h-121.931a95.665 95.665 0 1 0 121.931 0z" fill="#eae8e8"/><rect fill="#484868" height="54.295" rx="8" width="177.826" x="265.05" y="444.705"/><rect fill="#484868" height="54.295" rx="8" width="177.826" x="265.05" y="444.705"/><path d="m434.875 444.705h-11.388v38.173a8 8 0 0 1 -8 8h-150.437v.122a8 8 0 0 0 8 8h161.825a8 8 0 0 0 8-8v-38.3a8 8 0 0 0 -8-7.995z" fill="#3d3d54"/><path d="m461.293 13h-16c11.711 0 21.238 8.688 21.238 19.366v132.2c0 10.679-9.527 19.368-21.238 19.368h16c11.711 0 21.238-8.689 21.238-19.368v-132.2c0-10.678-9.531-19.366-21.238-19.366z" fill="#595975"/><path d="m395.305 69.1h-15.385v12h15.385a29.194 29.194 0 0 1 28.572 23.387 29.231 29.231 0 0 0 .574-5.759v-.482a29.179 29.179 0 0 0 -29.146-29.146z" fill="#3d3d54"/><path d="m132.08 69.1h-15.38a29.179 29.179 0 0 0 -29.151 29.142v.482a29.231 29.231 0 0 0 .574 5.759 29.194 29.194 0 0 1 28.577-23.383h15.38z" fill="#3d3d54"/><path d="m351.659 69.096h28.261v12h-28.261z" fill="#5b8e5b"/><path d="m132.08 69.096h28.261v12h-28.261z" fill="#5b8e5b"/><path d="m182.927 81.1h146.139a96.442 96.442 0 0 0 -12.106-12h-121.931a96.544 96.544 0 0 0 -12.102 12z" fill="#ddd7d7"/><g fill="#679b67"><path d="m316.306 134.744h-7.072c-3.287-14.957-15.565-26.105-30.175-26.105-24.069 0-28.18 19.529-30.9 32.452-3.076 14.617-5.059 19.731-15.218 19.731-8.3 0-15.045-8.109-15.045-18.078s6.749-18.105 15.045-18.105a8 8 0 0 0 0-16c-14.61 0-26.888 11.148-30.175 26.105h-7.072a8 8 0 0 0 0 16h7.074c3.288 14.943 15.565 26.078 30.173 26.078 24.048 0 28.157-19.519 30.875-32.436 3.08-14.628 5.065-19.747 15.243-19.747 8.3 0 15.045 8.122 15.045 18.105s-6.749 18.078-15.045 18.078a8 8 0 0 0 0 16c14.608 0 26.885-11.135 30.173-26.078h7.074a8 8 0 0 0 0-16z"/><path d="m160.341 69.1v12h22.586a96.544 96.544 0 0 1 12.1-12z"/><path d="m351.659 69.1h-34.7a96.442 96.442 0 0 1 12.106 12h22.593z"/></g><path d="m408.757 266.57-3.695-3.695a49.627 49.627 0 0 1 4.355 20.772l.07 161.058h14v-142.572a48.673 48.673 0 0 0 -14.73-35.563z" fill="#f2bf81"/><path d="m287.005 352.878a12.683 12.683 0 0 1 .129 1.751v26.51h14v-26.51a12.683 12.683 0 0 0 -.129-1.751z" fill="#5b8e5b"/><path d="m297.913 346.727-25.779-26.227a46.312 46.312 0 0 1 -.617-64.449l2.529-2.7a20.531 20.531 0 0 1 8.158-5.334 20.738 20.738 0 0 0 -7.322-1.19 20.416 20.416 0 0 0 -14.836 6.524l-2.529 2.7a46.312 46.312 0 0 0 .617 64.449l25.779 26.232a10.583 10.583 0 0 1 3.092 6.151h14a10.583 10.583 0 0 0 -3.092-6.156z" fill="#679b67"/><path d="m351.454 420.583a34.345 34.345 0 0 1 -34.32-34.292v-31.662a26.819 26.819 0 0 0 -7.793-19.1l-17.173-17.474-.016.022-8.118-8.261a46.3 46.3 0 0 1 -3.442-61.165 20.783 20.783 0 0 0 -6.546 4.7l-2.529 2.7a46.312 46.312 0 0 0 .617 64.449l25.779 26.232a10.678 10.678 0 0 1 3.221 7.9v31.662a50.363 50.363 0 0 0 50.32 50.292 8 8 0 0 0 0-16z" fill="#f2bf81"/><circle cx="287.005" cy="474.282" fill="#3d3d54" r="8"/></svg>