<?xml version="1.0" standalone="no"?>
<!DOCTYPE svg PUBLIC "-//W3C//DTD SVG 20010904//EN"
 "http://www.w3.org/TR/2001/REC-SVG-20010904/DTD/svg10.dtd">
<svg version="1.0" xmlns="http://www.w3.org/2000/svg"
 width="500.000000pt" height="590.000000pt" viewBox="0 0 500.000000 590.000000"
 preserveAspectRatio="xMidYMid meet">

<g transform="translate(0.000000,590.000000) scale(0.100000,-0.100000)"
fill="#000000" stroke="none">
<path d="M468 5759 c-147 -35 -291 -168 -350 -325 l-23 -59 -3 -1960 c-2
-1360 1 -1981 8 -2030 29 -185 163 -339 350 -402 53 -17 141 -18 1995 -21
1316 -2 1966 1 2020 8 195 25 359 163 416 350 19 64 19 96 17 2070 l-3 2005
-23 57 c-51 125 -165 239 -290 290 l-57 23 -2010 2 c-1142 0 -2026 -3 -2047
-8z m-178 -153 c0 -2 -8 -10 -17 -17 -16 -13 -17 -12 -4 4 13 16 21 21 21 13z
m2855 -464 c275 -76 429 -249 481 -540 10 -59 13 -203 14 -612 l0 -536 43 -39
c37 -34 397 -379 636 -611 61 -59 82 -86 78 -98 -6 -15 -108 -16 -1349 -14
l-1343 3 -80 23 c-201 56 -345 169 -423 332 -75 157 -74 147 -72 932 1 577 3
707 15 753 48 184 184 318 390 385 140 46 189 49 880 46 636 -2 652 -2 730
-24z m1715 -3365 c0 -395 -4 -431 -58 -530 -40 -75 -123 -152 -210 -194 l-76
-38 -1995 -3 c-1799 -2 -2000 -1 -2051 14 -146 42 -262 155 -313 307 -19 57
-21 89 -25 420 -2 197 -1 365 2 373 5 12 333 14 2366 14 l2360 0 0 -363z"/>
<path d="M1634 4849 c-65 -19 -127 -71 -159 -133 l-30 -60 -3 -288 -4 -288
221 0 221 0 0 136 c0 151 8 176 64 210 25 15 56 20 164 22 l132 4 0 204 0 204
-287 -1 c-159 0 -302 -5 -319 -10z"/>
<path d="M2540 4656 l0 -204 133 -4 c211 -7 227 -22 227 -232 l0 -136 221 0
220 0 -3 293 c-3 326 -6 338 -76 410 -69 71 -103 77 -432 77 l-290 0 0 -204z"/>
<path d="M1442 3488 c4 -317 5 -328 62 -395 15 -18 53 -45 84 -60 l57 -28 298
-3 297 -3 0 204 0 205 -132 4 c-116 3 -137 6 -169 25 -52 33 -59 57 -59 208
l0 135 -221 0 -221 0 4 -292z"/>
<path d="M580 1784 c-130 -56 -170 -233 -83 -365 33 -50 93 -79 166 -79 30 0
68 5 83 10 21 8 33 7 58 -8 53 -31 65 -33 76 -13 8 16 4 23 -26 40 l-35 21 27
46 c19 33 28 64 32 113 11 154 -70 251 -208 250 -30 0 -71 -7 -90 -15z m160
-53 c74 -39 103 -165 60 -258 -10 -24 -23 -43 -27 -43 -5 0 -27 9 -48 20 -37
19 -40 19 -47 3 -10 -27 -9 -33 6 -33 7 0 19 -6 25 -14 9 -11 5 -15 -25 -20
-47 -9 -122 26 -147 71 -24 41 -32 118 -18 170 13 47 53 100 85 113 36 15 100
11 136 -9z"/>
<path d="M962 1568 l3 -223 28 -3 27 -3 0 100 0 101 59 0 c53 0 63 -3 90 -30
17 -17 49 -62 73 -100 39 -63 46 -70 76 -70 17 0 32 4 32 9 0 17 -98 158 -125
179 -15 12 -22 22 -15 22 6 0 27 7 46 16 59 28 81 102 49 164 -26 51 -59 60
-210 60 l-135 0 2 -222z m278 152 c28 -28 26 -71 -6 -101 -23 -21 -34 -24
-117 -24 l-92 0 -3 73 -3 72 101 0 c87 0 103 -3 120 -20z"/>
<path d="M1632 1568 l3 -223 27 -3 27 -3 3 93 3 93 100 5 c55 3 110 11 122 18
50 28 69 122 37 183 -24 47 -66 59 -204 59 l-120 0 2 -222z m258 152 c31 -31
27 -93 -6 -119 -22 -17 -41 -21 -110 -21 l-84 0 0 80 0 80 90 0 c77 0 93 -3
110 -20z"/>
<path d="M2097 1588 c-100 -261 -97 -250 -61 -246 26 3 32 10 53 71 l23 67 98
0 97 0 25 -67 c23 -63 27 -68 56 -71 18 -2 32 0 32 5 0 4 -40 105 -88 223
l-89 215 -34 3 -34 3 -78 -203z m151 45 l40 -103 -79 0 -79 0 22 53 c11 28 28
75 37 104 9 28 16 51 17 50 1 -1 20 -48 42 -104z"/>
<path d="M2512 1668 l83 -123 5 -100 5 -100 28 -3 27 -3 0 96 0 96 45 65 c25
35 65 93 91 129 l45 65 -35 0 c-32 0 -37 -5 -102 -104 l-67 -105 -68 105 c-66
100 -70 104 -104 104 l-35 0 82 -122z"/>
<path d="M2892 1568 l3 -223 27 -3 28 -3 2 188 3 188 64 -188 c62 -183 64
-188 90 -185 24 3 30 15 88 182 35 98 65 181 68 184 3 3 5 -79 5 -181 l0 -187
25 0 25 0 0 225 0 225 -38 0 -38 0 -64 -185 c-36 -102 -67 -185 -70 -185 -3 0
-33 82 -66 183 l-60 182 -47 3 -47 3 2 -223z"/>
<path d="M3420 1565 l0 -225 165 0 165 0 0 25 0 25 -135 0 -135 0 0 80 0 80
125 0 125 0 0 25 0 25 -125 0 -125 0 0 70 0 70 130 0 130 0 0 25 0 25 -160 0
-160 0 0 -225z"/>
<path d="M3840 1564 l0 -225 28 3 27 3 5 172 5 171 115 -174 c102 -154 118
-174 143 -174 l27 0 0 225 0 225 -25 0 -25 0 -2 -172 -3 -173 -115 172 c-109
164 -117 172 -147 173 l-33 0 0 -226z"/>
<path d="M4260 1765 c0 -24 2 -25 75 -25 l75 0 0 -201 0 -200 28 3 27 3 3 198
2 197 75 0 c73 0 75 1 75 25 l0 25 -180 0 -180 0 0 -25z"/>
<path d="M612 703 c3 -41 6 -48 26 -51 20 -3 22 0 22 47 0 48 -2 51 -26 51
-24 0 -25 -2 -22 -47z"/>
<path d="M1540 700 c0 -43 3 -50 20 -50 17 0 20 7 20 50 0 43 -3 50 -20 50
-17 0 -20 -7 -20 -50z"/>
<path d="M512 610 c-38 -9 -78 -42 -85 -71 -4 -15 0 -19 24 -19 19 0 29 5 29
15 0 35 95 49 123 17 22 -24 21 -66 -3 -136 -29 -85 -32 -86 -55 -15 l-22 64
-42 3 c-37 3 -42 1 -39 -15 2 -10 13 -19 24 -21 16 -2 27 -20 46 -75 23 -66
28 -72 56 -75 29 -3 31 -1 63 80 17 46 34 106 37 135 4 48 2 55 -26 83 -17 16
-39 30 -50 30 -11 0 -26 2 -34 4 -7 2 -28 0 -46 -4z"/>
<path d="M2343 610 c-18 -4 -40 -13 -48 -20 -12 -10 -15 -10 -15 4 0 10 -9 16
-25 16 l-25 0 0 -165 0 -165 25 0 25 0 0 116 c0 114 0 116 29 145 21 20 39 29
63 29 66 0 78 -27 78 -175 0 -115 0 -116 23 -113 21 3 22 8 25 111 4 163 -14
207 -93 219 -16 3 -45 2 -62 -2z"/>
<path d="M2630 609 c-64 -19 -114 -85 -84 -110 10 -8 14 -39 14 -115 l0 -104
25 0 c25 0 25 0 25 94 0 51 -5 108 -12 126 -10 30 -9 35 12 52 34 28 105 24
135 -7 24 -23 25 -30 25 -145 l0 -120 25 0 25 0 0 118 c0 163 -21 201 -120
216 -19 2 -51 0 -70 -5z"/>
<path d="M2950 610 c-39 -9 -80 -51 -80 -81 0 -29 43 -64 94 -79 73 -20 106
-45 106 -80 0 -35 -23 -50 -74 -50 -49 0 -76 28 -76 80 0 36 -2 40 -25 40 -23
0 -25 -4 -25 -40 0 -88 48 -126 146 -118 43 4 61 11 82 31 52 53 24 133 -57
157 -63 19 -110 42 -115 56 -8 22 23 44 62 44 43 0 55 -7 71 -37 16 -32 51
-31 51 1 0 28 -51 76 -80 76 -10 0 -24 2 -32 4 -7 2 -29 0 -48 -4z"/>
<path d="M3853 611 c-75 -19 -93 -61 -93 -216 0 -114 0 -115 24 -115 21 0 24
5 28 50 6 57 27 87 72 98 21 6 31 14 31 28 0 15 -6 18 -29 16 -16 -2 -40 -11
-53 -19 -23 -15 -23 -15 -23 25 0 59 30 92 84 92 75 0 80 -10 86 -157 5 -123
6 -128 28 -131 22 -3 22 -2 22 120 0 78 -5 132 -13 147 -26 52 -97 78 -164 62z"/>
<path d="M731 584 c-39 -32 -41 -64 -6 -64 14 0 25 4 25 9 0 39 91 57 110 22
5 -11 10 -76 10 -145 l0 -126 25 0 25 0 0 136 0 136 -29 29 c-25 24 -38 29
-79 29 -40 0 -57 -6 -81 -26z"/>
<path d="M1013 600 c-43 -18 -58 -85 -25 -118 18 -18 18 -19 0 -42 -27 -34
-23 -84 10 -121 24 -27 37 -33 85 -37 67 -5 109 9 134 47 15 22 18 47 18 151
0 121 -1 125 -22 128 -21 3 -21 0 -25 -121 -4 -151 -14 -170 -86 -165 -36 2
-49 9 -66 31 -19 26 -19 30 -5 55 9 17 25 28 42 30 39 5 36 35 -5 47 -63 20
-63 77 1 83 23 2 31 8 31 23 0 15 -7 19 -32 18 -18 0 -43 -4 -55 -9z"/>
<path d="M1297 604 c-4 -4 -7 -62 -7 -128 0 -152 14 -189 73 -194 26 -2 45 2
58 14 18 16 20 16 37 1 25 -23 78 -21 102 3 18 18 20 33 20 166 0 145 0 145
-22 142 -22 -3 -23 -7 -28 -143 l-5 -140 -25 0 c-27 0 -37 23 -39 88 -1 34 -4
38 -23 35 -20 -3 -24 -10 -28 -63 -4 -53 -8 -60 -27 -63 -33 -5 -43 31 -43
149 l0 99 26 0 c19 0 25 5 22 18 -2 12 -14 18 -43 20 -23 2 -44 0 -48 -4z"/>
<path d="M1649 581 c-16 -16 -29 -37 -29 -45 0 -25 40 -19 62 9 22 28 77 35
96 12 7 -8 13 -68 14 -143 l3 -129 25 0 25 0 0 126 c0 171 -17 199 -121 199
-37 0 -51 -6 -75 -29z"/>
<path d="M1900 490 c0 -129 12 -180 48 -199 30 -16 108 -13 142 4 27 14 30 14
30 0 0 -9 9 -15 25 -15 l25 0 0 165 0 165 -25 0 -25 0 0 -116 c0 -114 0 -116
-29 -145 -21 -20 -39 -29 -63 -29 -66 0 -78 27 -78 174 l0 116 -25 0 -25 0 0
-120z"/>
<path d="M3174 595 c-12 -30 1 -249 16 -272 28 -44 113 -57 170 -28 27 14 30
14 30 0 0 -9 9 -15 25 -15 l25 0 0 165 0 165 -25 0 -25 0 0 -116 c0 -114 0
-116 -29 -145 -29 -29 -80 -39 -108 -21 -23 15 -33 65 -33 173 0 103 -1 109
-20 109 -11 0 -23 -7 -26 -15z"/>
<path d="M3511 584 c-39 -32 -41 -64 -6 -64 14 0 25 4 25 9 0 34 88 57 107 29
4 -7 10 -71 13 -143 5 -125 6 -130 28 -133 22 -3 22 -3 22 133 l0 137 -29 29
c-25 24 -38 29 -79 29 -40 0 -57 -6 -81 -26z"/>
<path d="M4099 581 c-36 -37 -38 -61 -4 -61 14 0 25 4 25 9 0 34 88 57 107 29
4 -7 10 -71 13 -143 5 -125 6 -130 28 -133 22 -3 22 -3 22 136 l0 140 -31 26
c-24 20 -41 26 -81 26 -41 0 -54 -5 -79 -29z"/>
<path d="M4390 597 c-38 -19 -54 -60 -40 -101 12 -37 16 -40 105 -70 55 -19
60 -24 63 -52 3 -27 -1 -33 -28 -44 -43 -18 -81 -4 -100 37 -11 23 -22 33 -39
33 -20 0 -22 -3 -16 -27 17 -70 59 -98 138 -90 65 6 97 36 97 92 0 53 -27 80
-98 96 -29 7 -59 21 -68 30 -15 17 -15 20 0 44 28 42 98 30 110 -20 6 -25 39
-35 51 -15 10 16 -24 76 -51 89 -33 15 -93 14 -124 -2z"/>
<path d="M2420 235 c0 -8 7 -15 15 -15 11 0 15 -11 15 -40 0 -36 3 -40 25 -40
24 0 25 3 25 55 l0 55 -40 0 c-29 0 -40 -4 -40 -15z"/>
</g>
</svg>
