<svg id="Icons" enable-background="new 0 0 32 32" viewBox="0 0 32 32" xmlns="http://www.w3.org/2000/svg"><g><path d="m12 26h-5c-.8 0-1.6-.4-2.1-1s-.7-1.4-.5-2.2l4.3-18.8c.3-1.2 1.3-2 2.6-2h8.6c2.3 0 4.4 1 5.9 2.8 1.4 1.8 2 4.1 1.5 6.4-.8 4-4.4 6.8-8.5 6.8h-3.2c-.5 0-1 .4-1.1.9l-1.5 6.3c-.1.5-.5.8-1 .8z"/></g><g><g><path d="m12 26h-5c-.8 0-1.6-.4-2.1-1s-.7-1.4-.5-2.2l4.3-18.8c.3-1.2 1.3-2 2.6-2h8.6c2.3 0 4.4 1 5.9 2.8 1.4 1.8 2 4.1 1.5 6.4-.8 4-4.4 6.8-8.5 6.8h-3.2c-.5 0-1 .4-1.1.9l-1.5 6.3c-.1.5-.5.8-1 .8z" fill="#01308a"/></g></g><path d="m29.3 11.3v.3c-1 4.9-5.4 8.4-10.4 8.4h-2.5l-1.4 5.7c-.4 1.4-1.6 2.3-3 2.3h-2c.1.4.2.7.5 1 .5.6 1.2.9 2 .9h4.5c.5 0 .9-.3 1-.7l1.4-5.5c.1-.4.5-.6.9-.6h2.9c3.7 0 7-2.5 7.7-6 .4-2.1-.2-4.3-1.6-5.8z" fill="#019cde"/></svg>