<svg id="Capa_1" enable-background="new 0 0 512.156 512.156" height="512" viewBox="0 0 512.156 512.156" width="512" xmlns="http://www.w3.org/2000/svg"><g><circle cx="256.078" cy="132.097" fill="#ffd064" r="124.597"/><path d="m290.841 12.414c30.261 22.732 49.834 58.922 49.834 99.683 0 68.813-55.784 124.597-124.597 124.597-12.065 0-23.729-1.715-34.763-4.914 20.825 15.644 46.711 24.914 74.763 24.914 68.813 0 124.597-55.784 124.597-124.597 0-56.748-37.938-104.635-89.834-119.683z" fill="#ffc250"/><path d="m379.956 145.556c-6.711 62.483-59.613 111.139-123.878 111.139s-117.168-48.656-123.879-111.139h-123.455c-.644 0-1.166.522-1.166 1.166v356.768c0 .644.522 1.166 1.166 1.166h494.667c.644 0 1.166-.522 1.166-1.166v-356.768c0-.644-.522-1.166-1.166-1.166z" fill="#d3effb"/><path d="m503.412 145.556h-38.834v262.722c0 42.182-34.196 76.378-76.378 76.378h-380.622v18.834c0 .644.522 1.166 1.166 1.166h494.667c.644 0 1.166-.522 1.166-1.166v-356.768c.001-.644-.521-1.166-1.165-1.166z" fill="#b1e4f9"/><g fill="#665e66"><path d="m144.609 283.611h-80.784c-.566 0-1.025-.459-1.025-1.025v-25.561c0-.566.459-1.025 1.025-1.025h80.784c.566 0 1.025.459 1.025 1.025v25.561c-.001.566-.459 1.025-1.025 1.025z"/><path d="m255.053 394.056h-191.228c-.566 0-1.025-.459-1.025-1.025v-25.561c0-.566.459-1.025 1.025-1.025h191.228c.566 0 1.025.459 1.025 1.025v25.561c0 .566-.459 1.025-1.025 1.025z"/><path d="m62.8 312.247v25.561c0 .566.459 1.025 1.025 1.025h246.45c.566 0 1.025-.459 1.025-1.025v-25.561c0-.566-.459-1.025-1.025-1.025h-246.45c-.566 0-1.025.459-1.025 1.025z"/><path d="m448.331 311.222h-108.395c-.566 0-1.025.459-1.025 1.025v25.561c0 .566.459 1.025 1.025 1.025h108.395c.566 0 1.025-.459 1.025-1.025v-25.561c0-.566-.459-1.025-1.025-1.025z"/></g><path d="m239.613 40.429 1.752-3.504c.446-.892 1.635-1.085 2.341-.38 7.922 7.921 18.665 12.372 29.868 12.372h26.163c-1.172-22.907-20.138-41.417-43.659-41.417-25.239 0-45.234 21.312-43.627 46.499l.486 7.615c11.43-2.738 21.279-10.391 26.676-21.185z" fill="#e7a52e"/><path d="m273.574 48.917c-11.203 0-21.947-4.45-29.868-12.372-.705-.706-1.894-.512-2.341.38l-1.752 3.504c-5.397 10.794-15.246 18.447-26.676 21.185l2.013 31.548c1.384 21.698 19.386 38.588 41.128 38.588 21.742 0 39.744-16.89 41.128-38.588l2.499-39.163c.109-1.714.118-3.41.032-5.082z" fill="#fff1dd"/><path d="m256.078 173.167c16.017 0 29.891-9.169 36.663-22.544l-.421-.105c-7.608-1.902-12.946-8.738-12.946-16.58v-9.401c-6.642 4.558-14.675 7.214-23.297 7.214-8.621 0-16.655-2.656-23.297-7.214v9.401c0 7.842-5.337 14.678-12.945 16.58l-.421.105c6.773 13.375 20.647 22.544 36.664 22.544z" fill="#ffe4c1"/><path d="m290.841 12.414c30.261 22.732 49.834 58.922 49.834 99.683 0 68.813-55.784 124.597-124.597 124.597-12.065 0-23.729-1.715-34.763-4.914 20.825 15.644 46.711 24.914 74.763 24.914 68.813 0 124.597-55.784 124.597-124.597 0-56.748-37.938-104.635-89.834-119.683z" fill="#ffc250"/><path d="m317.877 156.907-25.136-6.284c-6.772 13.375-20.646 22.544-36.663 22.544s-29.891-9.169-36.663-22.544l-25.136 6.284c-13.883 3.471-23.622 15.945-23.622 30.255v35.641c22.305 21.013 52.359 33.891 85.422 33.891s63.117-12.878 85.422-33.891v-35.641c-.001-14.31-9.741-26.784-23.624-30.255z" fill="#61a2f9"/><path d="m329.889 162.882c-19.44 43.499-63.085 73.812-113.811 73.812-12.065 0-23.729-1.715-34.763-4.914 20.825 15.644 46.711 24.914 74.763 24.914 33.06 0 63.113-12.876 85.418-33.887.001-.001.003-.003.004-.004v-35.641c0-9.668-4.446-18.498-11.611-24.28z" fill="#5490f9"/><path d="m252.195 92.656h1.045c7.841 0 14.22-6.379 14.22-14.22v-8.811c0-4.142-3.358-7.5-7.5-7.5s-7.5 3.358-7.5 7.5v8.031h-.266c-4.142 0-7.5 3.358-7.5 7.5s3.359 7.5 7.501 7.5z"/><path d="m503.411 138.056h-54.056c-4.142 0-7.5 3.358-7.5 7.5s3.358 7.5 7.5 7.5h47.722v344.1h-482v-344.1h110.564c10.14 63.345 65.107 111.139 130.436 111.139 65.101 0 120.27-47.633 130.436-111.139h27.842c4.142 0 7.5-3.358 7.5-7.5s-3.358-7.5-7.5-7.5h-26.313c.088-1.975.133-3.962.133-5.958 0-72.84-59.258-132.098-132.097-132.098-.126 0-.252 0-.378.001-43.384.124-83.945 21.546-108.559 57.36-2.346 3.414-1.481 8.083 1.933 10.429 3.414 2.348 8.084 1.481 10.429-1.933 13.449-19.568 32.266-34.29 53.728-42.733-6.081 9.208-8.984 20.071-8.264 31.353.868 13.598 1.989 31.167 2.499 39.163.892 13.973 7.67 26.292 17.816 34.594v5.704c0 4.409-2.987 8.235-7.264 9.304-.069.017-.138.036-.206.055-.072.016-.144.032-.215.05l-25.136 6.284c-17.253 4.313-29.304 19.747-29.304 37.531v16.115c-15.157-19.74-24.175-44.426-24.175-71.18 0-12.634 1.999-25.059 5.94-36.93 1.306-3.931-.823-8.176-4.754-9.481-3.931-1.306-8.176.823-9.481 4.754-5.226 15.738-7.274 31.884-6.572 47.616h-115.371c-4.779 0-8.667 3.888-8.667 8.666v356.768c0 4.778 3.888 8.666 8.667 8.666h494.667c4.779 0 8.667-3.888 8.667-8.666v-356.768c0-4.779-3.888-8.666-8.667-8.666zm-130.236-5.959c0 26.753-9.019 51.44-24.175 71.18v-16.115c0-17.785-12.05-33.218-29.304-37.531l-25.136-6.284c-.071-.018-.143-.034-.214-.05-.069-.019-.137-.038-.207-.055-4.277-1.069-7.264-4.896-7.264-9.304v-5.704c10.146-8.302 16.924-20.621 17.816-34.594l2.499-39.163c.695-10.894-2.041-21.894-8.25-31.354 43.428 17.141 74.235 59.528 74.235 108.974zm-82.208-90.68h-17.392c-9.279 0-18.003-3.614-24.563-10.173-2.031-2.033-4.938-2.971-7.772-2.512-2.836.46-5.297 2.269-6.582 4.838l-1.752 3.504c-2.932 5.866-7.488 10.634-13.044 13.812.062-9.122 3.492-17.721 9.806-24.451 6.918-7.373 16.298-11.435 26.41-11.435 16.567 0 30.621 11.104 34.889 26.417zm-70.171 25.588c9.892-3.817 18.231-10.806 23.723-19.942 8.408 6.076 18.479 9.354 29.055 9.354h18.461l-2.314 36.268c-1.129 17.7-15.907 31.565-33.643 31.565s-32.514-13.865-33.643-31.565zm51.218 69.557c.736 6.93 4.359 13.099 9.789 17.126-6.293 7.526-15.616 11.978-25.724 11.978-10.109 0-19.431-4.453-25.724-11.979 5.43-4.027 9.052-10.196 9.789-17.125 10.286 3.581 21.56 3.589 31.87 0zm-75.917 27.621 19.701-4.925c8.966 13.34 23.91 21.409 40.28 21.409 16.371 0 31.314-8.068 40.28-21.409l19.701 4.925c10.563 2.641 17.941 12.09 17.941 22.979v32.27c-4.99 4.457-10.363 8.494-16.062 12.054v-22.08c0-4.142-3.358-7.5-7.5-7.5s-7.5 3.358-7.5 7.5v30.001c-14.356 6.293-30.207 9.787-46.859 9.787s-32.503-3.494-46.859-9.787v-30.001c0-4.142-3.358-7.5-7.5-7.5s-7.5 3.358-7.5 7.5v22.08c-5.7-3.56-11.072-7.597-16.062-12.054v-32.27c-.002-10.889 7.376-20.338 17.939-22.979z"/><path d="m63.825 291.111h80.784c4.701 0 8.525-3.824 8.525-8.525v-25.562c0-4.701-3.824-8.525-8.525-8.525h-80.784c-4.701 0-8.525 3.824-8.525 8.525v25.562c0 4.701 3.824 8.525 8.525 8.525zm6.475-27.611h67.833v12.611h-67.833z"/><path d="m263.578 393.031v-25.562c0-4.701-3.824-8.525-8.525-8.525h-191.228c-4.701 0-8.525 3.824-8.525 8.525v25.562c0 4.701 3.824 8.525 8.525 8.525h191.228c4.701 0 8.525-3.825 8.525-8.525zm-15-6.475h-178.278v-12.611h178.278z"/><path d="m309.505 455.456c-1.28-3.939-5.512-6.099-9.45-4.815l-2.09.679v-2.198c0-4.142-3.358-7.5-7.5-7.5s-7.5 3.358-7.5 7.5v2.198l-2.09-.679c-3.939-1.283-8.171.876-9.45 4.815-1.28 3.939.876 8.17 4.815 9.45l2.09.679-1.292 1.778c-2.435 3.351-1.691 8.041 1.66 10.476 3.337 2.424 8.031 1.706 10.476-1.66l1.292-1.778 1.292 1.778c2.442 3.361 7.134 4.087 10.476 1.66 3.351-2.435 4.094-7.125 1.66-10.476l-1.292-1.778 2.09-.679c3.937-1.28 6.093-5.51 4.813-9.45z"/><path d="m358.499 455.456c-1.28-3.939-5.512-6.099-9.45-4.815l-2.09.679v-2.198c0-4.142-3.358-7.5-7.5-7.5s-7.5 3.358-7.5 7.5v2.198l-2.09-.679c-3.941-1.283-8.171.876-9.45 4.815-1.28 3.939.876 8.17 4.815 9.45l2.09.679-1.292 1.778c-2.435 3.351-1.691 8.041 1.66 10.476 3.337 2.424 8.031 1.706 10.476-1.66l1.292-1.778 1.292 1.778c2.442 3.361 7.134 4.087 10.476 1.66 3.351-2.435 4.094-7.125 1.66-10.476l-1.292-1.778 2.09-.679c3.937-1.28 6.094-5.51 4.813-9.45z"/><path d="m260.51 455.456c-1.28-3.939-5.512-6.099-9.45-4.815l-2.09.679v-2.198c0-4.142-3.358-7.5-7.5-7.5s-7.5 3.358-7.5 7.5v2.198l-2.09-.679c-3.939-1.283-8.171.876-9.45 4.815-1.28 3.939.876 8.17 4.815 9.45l2.09.679-1.292 1.778c-2.435 3.351-1.691 8.041 1.66 10.476 3.337 2.424 8.031 1.706 10.476-1.66l1.292-1.778 1.292 1.778c2.442 3.361 7.134 4.087 10.476 1.66 3.351-2.435 4.094-7.125 1.66-10.476l-1.292-1.778 2.089-.679c3.938-1.28 6.094-5.51 4.814-9.45z"/><path d="m407.494 455.456c-1.28-3.939-5.511-6.099-9.45-4.815l-2.09.679v-2.198c0-4.142-3.358-7.5-7.5-7.5s-7.5 3.358-7.5 7.5v2.198l-2.09-.679c-3.941-1.283-8.171.876-9.45 4.815-1.28 3.939.876 8.17 4.815 9.45l2.09.679-1.292 1.778c-2.435 3.351-1.691 8.041 1.66 10.476 3.337 2.424 8.031 1.706 10.476-1.66l1.292-1.778 1.292 1.778c2.442 3.361 7.134 4.087 10.476 1.66 3.351-2.435 4.094-7.125 1.66-10.476l-1.292-1.778 2.09-.679c3.937-1.28 6.093-5.51 4.813-9.45z"/><path d="m456.489 455.456c-1.28-3.939-5.511-6.099-9.45-4.815l-2.09.679v-2.198c0-4.142-3.358-7.5-7.5-7.5s-7.5 3.358-7.5 7.5v2.198l-2.09-.679c-3.941-1.283-8.171.876-9.45 4.815-1.28 3.939.876 8.17 4.815 9.45l2.09.679-1.292 1.778c-2.435 3.351-1.691 8.041 1.66 10.476 3.337 2.424 8.031 1.706 10.476-1.66l1.292-1.778 1.292 1.778c2.442 3.361 7.134 4.087 10.476 1.66 3.351-2.435 4.094-7.125 1.66-10.476l-1.292-1.778 2.09-.679c3.937-1.28 6.093-5.51 4.813-9.45z"/><path d="m318.8 337.809v-25.562c0-4.701-3.824-8.525-8.525-8.525h-246.45c-4.701 0-8.525 3.824-8.525 8.525v25.562c0 4.7 3.824 8.524 8.525 8.524h103.676c4.142 0 7.5-3.358 7.5-7.5s-3.358-7.5-7.5-7.5h-97.201v-12.611h233.5v12.611h-101.299c-4.142 0-7.5 3.358-7.5 7.5s3.358 7.5 7.5 7.5h107.774c4.701 0 8.525-3.824 8.525-8.524z"/><path d="m448.331 303.722h-108.395c-4.701 0-8.525 3.824-8.525 8.525v25.562c0 4.7 3.824 8.524 8.525 8.524h108.395c4.701 0 8.525-3.824 8.525-8.524v-25.562c0-4.701-3.825-8.525-8.525-8.525zm-6.475 27.611h-95.444v-12.611h95.444z"/></g></svg>