<svg id="svg569" enable-background="new 0 0 384 347.996" height="512" viewBox="0 0 512 512" width="512" xmlns="http://www.w3.org/2000/svg" xmlns:x="adobe:ns:meta/" xmlns:svg="http://www.w3.org/2000/svg" xmlns:xap="http://ns.adobe.com/xap/1.0/" xmlns:xapgimg="http://ns.adobe.com/xap/1.0/g/img/" xmlns:xapmm="http://ns.adobe.com/xap/1.0/mm/"><g stroke-linecap="round" stroke-linejoin="round" stroke-width="3.78"><path id="path314" d="m47.974609 23.999994c-26.307402 0-47.97467719 21.684155-47.97467719 48.00471v256.000936c0 26.32093 21.67785819 47.99715 47.99811019 47.99715h351.999128c26.32025 0 48.00415-21.67622 48.00415-47.99715v-192.00751c0-26.32055-21.68428-47.996769-48.00415-47.996769h-15.99572v-15.996657c0-26.320555-21.67824-48.00471-47.99849-48.00471z" fill="#60a6e5"/><path id="path315" d="m47.974609 23.999994c-26.307402 0-47.97467719 21.684155-47.97467719 48.00471v256.000936c0 26.32093 21.67785819 47.99715 47.99811019 47.99715h32.002016c-26.320252 0-47.99811-21.67622-47.99811-47.99715v-256.000936c0-26.320555 21.667276-48.00471 47.974677-48.00471z" fill="#2c92f9"/><path id="path316" d="m63.972594 23.999994c-17.482961.000756-32.023182 14.516954-32.023182 32.000494 0 17.483918 14.539843 32.000495 32.023182 32.000873h320.028856v-15.996657c0-26.320177-21.67824-48.00471-47.99849-48.00471z" fill="#675d67"/><path id="path317" d="m399.99641 184.00322c-26.31874 0-47.9966 21.67584-47.9966 47.99602s21.67748 48.00584 47.9966 48.00584h63.99912c26.31987 0 48.00454-21.68566 48.00454-48.00584s-21.68467-47.99602-48.00454-47.99602z" fill="#675d67"/><path id="path323" d="m223.99759 232.00097c-70.50293 0-127.994081 57.49978-127.994081 128.00341 0 70.5036 57.491151 127.99563 127.994081 127.99563s128.00202-57.49203 128.00202-127.99563c0-70.50363-57.49909-128.00341-128.00202-128.00341z" fill="#ff5663"/><path id="path11285" d="m223.99759 296.0017a16.000006 16.00019 0 0 0 -15.99609 15.99824v32.00038h-32.00013a16.000006 16.00019 0 0 0 -16.00403 16.00406 16.000006 16.00019 0 0 0 16.00403 15.99628h32.00013v32.00235a16.000006 16.00019 0 0 0 15.99609 16.00406 16.000006 16.00019 0 0 0 16.00403-16.00406v-32.00235h32.00164a16.000006 16.00019 0 0 0 15.9961-15.99628 16.000006 16.00019 0 0 0 -15.9961-16.00406h-32.00164v-32.00038a16.000006 16.00019 0 0 0 -16.00403-15.99824z" fill="#eaf4ff"/></g></svg>